HIERARCHY
ROOT Hips
{
	OFFSET 0.00000 0.00000 0.00000
	CHANNELS 6 Xposition Yposition Zposition Zrotation Yrotation Xrotation 
	JOINT LHipJoint
	{
		OFFSET 0 0 0
		CHANNELS 3 Zrotation Yrotation Xrotation
		JOINT LeftUpLeg
		{
			OFFSET 1.36306 -1.79463 0.83929
			CHANNELS 3 Zrotation Yrotation Xrotation
			JOINT LeftLeg
			{
				OFFSET 2.44811 -6.72613 0.00000
				CHANNELS 3 Zrotation Yrotation Xrotation
				JOINT LeftFoot
				{
					OFFSET 2.56220 -7.03959 0.00000
					CHANNELS 3 Zrotation Yrotation Xrotation
					JOINT LeftToeBase
					{
						OFFSET 0.15764 -0.43311 2.32255
						CHANNELS 3 Zrotation Yrotation Xrotation
						End Site
						{
							OFFSET 0.00000 -0.00000 1.18966
						}
					}
				}
			}
		}
	}
	JOINT RHipJoint
	{
		OFFSET 0 0 0
		CHANNELS 3 Zrotation Yrotation Xrotation
		JOINT RightUpLeg
		{
			OFFSET -1.30552 -1.79463 0.83929
			CHANNELS 3 Zrotation Yrotation Xrotation
			JOINT RightLeg
			{
				OFFSET -2.54253 -6.98555 0.00000
				CHANNELS 3 Zrotation Yrotation Xrotation
				JOINT RightFoot
				{
					OFFSET -2.56826 -7.05623 0.00000
					CHANNELS 3 Zrotation Yrotation Xrotation
					JOINT RightToeBase
					{
						OFFSET -0.16473 -0.45259 2.36315
						CHANNELS 3 Zrotation Yrotation Xrotation
						End Site
						{
							OFFSET -0.00000 -0.00000 1.21082
						}
					}
				}
			}
		}
	}
	JOINT LowerBack
	{
		OFFSET 0 0 0
		CHANNELS 3 Zrotation Yrotation Xrotation
		JOINT Spine
		{
			OFFSET 0.02827 2.03559 -0.19338
			CHANNELS 3 Zrotation Yrotation Xrotation
			JOINT Spine1
			{
				OFFSET 0.05672 2.04885 -0.04275
				CHANNELS 3 Zrotation Yrotation Xrotation
				JOINT Neck
				{
					OFFSET 0 0 0
					CHANNELS 3 Zrotation Yrotation Xrotation
					JOINT Neck1
					{
						OFFSET -0.05417 1.74624 0.17202
						CHANNELS 3 Zrotation Yrotation Xrotation
						JOINT Head
						{
							OFFSET 0.10407 1.76136 -0.12397
							CHANNELS 3 Zrotation Yrotation Xrotation
							End Site
							{
								OFFSET 0.03720 1.77044 -0.06241
							}
						}
					}
				}
				JOINT LeftShoulder
				{
					OFFSET 0 0 0
					CHANNELS 3 Zrotation Yrotation Xrotation
					JOINT LeftArm
					{
						OFFSET 3.36241 1.20089 -0.31121
						CHANNELS 3 Zrotation Yrotation Xrotation
						JOINT LeftForeArm
						{
							OFFSET 4.98300 -0.00000 -0.00000
							CHANNELS 3 Zrotation Yrotation Xrotation
							JOINT LeftHand
							{
								OFFSET 3.48356 -0.00000 -0.00000
								CHANNELS 3 Zrotation Yrotation Xrotation
								JOINT LeftFingerBase
								{
									OFFSET 0 0 0
									CHANNELS 3 Zrotation Yrotation Xrotation
									JOINT LeftHandIndex1
									{
										OFFSET 0.71526 -0.00000 -0.00000
										CHANNELS 3 Zrotation Yrotation Xrotation
										End Site
										{
											OFFSET 0.57666 -0.00000 -0.00000
										}
									}
								}
								JOINT LThumb
								{
									OFFSET 0 0 0
									CHANNELS 3 Zrotation Yrotation Xrotation
									End Site
									{
										OFFSET 0.58547 -0.00000 0.58547
									}
								}
							}
						}
					}
				}
				JOINT RightShoulder
				{
					OFFSET 0 0 0
					CHANNELS 3 Zrotation Yrotation Xrotation
					JOINT RightArm
					{
						OFFSET -3.13660 1.37405 -0.40465
						CHANNELS 3 Zrotation Yrotation Xrotation
						JOINT RightForeArm
						{
							OFFSET -5.24190 -0.00000 -0.00000
							CHANNELS 3 Zrotation Yrotation Xrotation
							JOINT RightHand
							{
								OFFSET -3.44417 -0.00000 -0.00000
								CHANNELS 3 Zrotation Yrotation Xrotation
								JOINT RightFingerBase
								{
									OFFSET 0 0 0
									CHANNELS 3 Zrotation Yrotation Xrotation
									JOINT RightHandIndex1
									{
										OFFSET -0.62253 -0.00000 -0.00000
										CHANNELS 3 Zrotation Yrotation Xrotation
										End Site
										{
											OFFSET -0.50190 -0.00000 -0.00000
										}
									}
								}
								JOINT RThumb
								{
									OFFSET 0 0 0
									CHANNELS 3 Zrotation Yrotation Xrotation
									End Site
									{
										OFFSET -0.50956 -0.00000 0.50956
									}
								}
							}
						}
					}
				}
			}
		}
	}
}
MOTION
Frames: 13
Frame Time: 0.0408163
0.00 0.00 0.00 -2.4191 -3.5436 -3.0083 0.0000 0.0000 0.0000 -9.3586 -0.7294 -14.6749 2.3785 9.6136 27.7343 0.3504 1.3905 10.7821 0.1530 -2.5206 -6.9469 0.0000 0.0000 0.0000 18.6940 9.5474 -17.7336 -2.5142 -9.8637 28.5366 0.1101 -17.1640 10.9674 -0.2851 -3.4339 9.4892 0.8411 0.3753 17.6742 3.0804 0.9287 1.5088 2.6201 0.4736 -8.3353 -5.3391 -2.7536 -13.6486 3.3975 -3.0363 5.3361 1.6817 -1.4278 3.9294 -0.0000 0.0000 0.0000 -82.0661 38.4710 28.4408 30.7292 -41.5103 -11.8900 -0.0000 0.0000 -18.1288 28.4253 -9.1948 -4.9432 -7.1250 0.0000 -0.0000 1.0599 19.5513 -0.6442 -0.0000 0.0000 0.0000 88.1094 -26.5201 10.2618 -15.8559 25.3249 -3.5841 0.0000 -0.0000 -16.2426 -16.8264 -22.6105 6.6320 7.1250 -0.0000 -0.0000 12.5971 -53.0550 -2.5282
0.00 0.00 0.00 -3.7270 -1.7644 -0.2149 0.0000 0.0000 0.0000 -9.2540 -1.4618 -11.7602 2.3030 9.4706 27.2787 0.4385 -6.5908 -11.9699 0.0638 -1.6294 -4.4826 0.0000 0.0000 0.0000 21.4082 6.0796 -9.5092 -2.6074 -10.0307 29.0761 -0.4430 -4.3369 -14.9164 -0.0137 0.7553 -2.0759 2.1812 0.3139 18.3564 3.1015 1.1617 1.0838 1.8277 0.5348 -9.1636 -4.1723 -2.4338 -12.7923 2.3311 -2.7528 4.7417 1.3322 -1.3333 3.9779 0.0000 0.0000 0.0000 -82.3960 10.5800 35.8516 83.3608 -59.8328 -54.2535 -0.0000 0.0000 -13.6240 28.2296 -11.9643 -6.3505 -7.1250 0.0000 -0.0000 0.7110 16.4570 -0.4805 0.0000 0.0000 0.0000 78.0883 4.2551 25.7611 -95.6848 59.8775 -64.9211 0.0000 -0.0000 -20.8588 -25.1774 -19.3580 8.8565 7.1250 -0.0000 -0.0000 3.1602 -51.1699 -0.4807
0.00 0.00 0.00 -4.2958 -1.7990 1.0458 0.0000 0.0000 0.0000 -8.6121 -1.7835 -12.9795 2.4000 9.6537 27.8625 0.4768 -6.6810 -12.4550 0.0525 -1.4793 -4.0686 0.0000 0.0000 0.0000 21.8427 6.3121 -10.5476 -2.6203 -10.0534 29.1497 -0.4911 -3.8721 -15.2230 -0.0071 0.5460 -1.5004 2.8882 0.6747 19.3099 3.4003 1.8452 1.4008 1.5663 0.8357 -9.3443 -5.1712 -2.9471 -12.1333 2.8422 -3.3349 3.3797 1.6444 -1.6123 3.4286 0.0000 0.0000 0.0000 -80.6493 6.4291 33.8722 104.8494 -59.1502 -72.8233 -0.0000 0.0000 -13.8674 28.7309 -11.3350 -6.1495 -7.1250 0.0000 -0.0000 1.1110 17.1048 -0.7352 0.0000 0.0000 0.0000 76.9191 7.8010 22.8689 -111.8213 58.1220 -78.7786 0.0000 -0.0000 -19.6785 -25.7910 -16.8359 7.9672 7.1250 -0.0000 -0.0000 2.0167 -48.5457 -0.1765
0.00 0.00 0.00 -3.6006 -0.5141 5.7913 0.0000 0.0000 0.0000 -8.4835 -4.5713 -22.7390 3.9257 12.0609 35.9477 0.8117 -8.3913 -16.2376 0.1894 -2.8027 -7.7300 0.0000 0.0000 0.0000 20.0509 8.9340 -20.1691 -4.3665 -12.6327 38.0088 -0.9175 -4.0242 -19.9784 -0.0283 1.0867 -2.9873 2.4546 1.0797 22.0881 3.4145 2.4029 1.6306 1.6440 1.1030 -10.6435 -4.5561 -2.8888 -12.3120 2.8781 -3.3267 1.8655 1.5411 -1.5891 2.9194 -0.0000 -0.0000 0.0000 -76.0733 -6.7320 25.3092 133.1123 -51.6604 -96.2897 -0.0000 0.0000 -16.6898 35.1579 -10.1786 -7.0949 -7.1250 0.0000 -0.0000 5.6953 17.6310 -3.7213 -0.0000 -0.0000 0.0000 72.1733 16.2667 17.8169 -133.4542 51.5037 -96.5576 0.0000 -0.0000 -20.7180 -25.9848 -17.1988 8.2010 7.1250 -0.0000 -0.0000 1.8962 -48.9710 -0.1858
0.00 0.00 0.00 -4.6861 -0.1004 11.0147 0.0000 0.0000 0.0000 -5.0642 -5.7581 -38.5369 7.8929 16.0399 52.1759 1.2362 -12.3527 -20.4241 0.0965 -2.0035 -5.5154 0.0000 0.0000 0.0000 18.9571 11.2604 -34.7344 -8.1226 -16.2087 53.0031 -1.4652 -3.2832 -24.2514 -0.2465 3.1949 -8.8219 3.6117 1.2404 25.7903 3.9331 3.1274 2.3888 1.2747 1.3721 -11.7721 -4.3932 -2.8271 -11.5247 3.7280 -3.2495 -3.4423 1.7956 -1.5173 1.0181 0.0000 0.0000 0.0000 -71.2040 -20.6763 14.7383 143.2920 -45.9940 -103.9703 -0.0000 0.0000 -22.4261 36.8423 -9.0169 -6.6974 -7.1250 0.0000 -0.0000 7.0171 18.8107 -4.4128 0.0000 0.0000 0.0000 63.7559 26.3664 10.6439 -142.3151 46.6369 -103.2638 0.0000 -0.0000 -21.8025 -25.2772 -15.4451 7.1677 7.1250 -0.0000 -0.0000 2.2624 -46.9576 -0.1093
0.00 0.00 0.00 -4.4521 0.2486 15.1037 0.0000 0.0000 0.0000 -2.6449 -8.0354 -51.4444 12.2496 18.4942 66.7778 1.6135 -13.9542 -23.3544 0.0959 -1.9967 -5.4965 0.0000 0.0000 0.0000 15.9173 12.3192 -48.2018 -12.7503 -18.6901 68.3480 -1.9522 -0.7859 -26.7283 -0.1992 2.8738 -7.9275 3.6579 0.8369 28.5628 3.7492 2.6860 3.4466 1.1602 1.1499 -11.9945 -4.1229 -2.4342 -12.1241 4.4996 -2.6506 -7.3941 2.0328 -1.2085 -0.1682 -0.0000 -0.0000 0.0000 -67.4738 -29.2887 8.1415 145.7981 -44.2338 -105.7463 -0.0000 0.0000 -25.2515 39.4374 -13.0146 -10.4938 -7.1250 0.0000 -0.0000 8.1670 13.4411 -6.1086 -0.0000 -0.0000 0.0000 58.1784 36.0939 4.5713 -144.1267 45.4258 -104.5678 0.0000 -0.0000 -21.2386 -25.1387 -15.3929 7.1001 7.1250 -0.0000 -0.0000 2.3851 -46.8812 -0.1108
0.00 0.00 0.00 -2.4004 -3.6618 4.4419 0.0000 0.0000 0.0000 -11.9989 3.6527 0.6010 1.7056 8.2239 23.3961 2.5371 9.4161 28.6732 0.0179 -0.8648 -2.3769 0.0000 0.0000 0.0000 17.9298 2.7249 -1.4479 -3.1683 -10.9627 32.1542 -0.4716 -17.7229 16.4904 -0.4863 -4.4716 12.4075 0.1093 0.4291 8.0723 3.5201 0.7496 -0.1567 3.5169 0.4106 -4.7436 -6.1142 -2.9669 -11.2895 6.1499 -3.5807 5.7450 2.6379 -1.5978 3.7696 -0.0000 -0.0000 0.0000 -83.3150 25.8522 33.1824 38.9628 -47.4433 -17.6714 -0.0000 0.0000 -18.2637 26.6335 -11.2587 -5.5921 -7.1250 0.0000 -0.0000 -0.3458 17.4251 0.2264 -0.0000 -0.0000 0.0000 79.3518 -20.4657 31.8895 -24.3488 35.5309 -7.9083 0.0000 -0.0000 -5.8414 -21.1099 -18.5720 7.0099 7.1250 -0.0000 -0.0000 6.9679 -49.6595 -0.8040
0.00 0.00 0.00 -5.3950 -3.9239 -7.1333 0.0000 0.0000 0.0000 -6.6901 -0.5852 -16.3723 6.6211 15.0043 47.4261 1.1804 -13.8740 -20.3663 0.0038 0.3961 1.0882 0.0000 0.0000 0.0000 23.1992 6.1536 -12.5012 -6.0504 -14.4770 45.1838 -1.4363 -6.1308 -25.5881 -0.0059 -0.4964 1.3640 3.1058 0.3432 21.1633 3.7895 1.5131 2.8711 1.9430 0.6805 -8.7351 -5.6005 -2.4457 -9.6385 3.7923 -2.8898 8.0186 1.8863 -1.3914 4.1058 0.0000 0.0000 0.0000 -80.3886 -3.4658 35.3025 85.0805 -59.9084 -55.7409 -0.0000 0.0000 -15.0514 27.5297 -14.6418 -7.5057 -7.1250 0.0000 -0.0000 -0.0007 13.5638 0.0005 0.0000 0.0000 0.0000 75.3765 12.7395 31.2075 -77.2878 59.3805 -49.0138 0.0000 -0.0000 -19.6577 -18.9323 -19.0105 6.3753 7.1250 -0.0000 -0.0000 9.2052 -49.7697 -1.0907
0.00 0.00 0.00 -4.1066 -3.8937 -2.0631 0.0000 0.0000 0.0000 -10.8179 -1.2507 -9.6865 2.9512 10.6156 30.9943 1.0073 -8.6395 -18.0270 0.0505 1.4502 3.9884 0.0000 0.0000 0.0000 20.9521 5.7031 -8.0236 -2.8602 -10.4653 30.4970 -0.6607 -7.4364 -19.8210 -0.0465 -1.3913 3.8260 2.7579 0.8254 17.7330 3.9370 1.9406 2.1437 2.2045 0.9109 -7.6875 -5.9220 -3.3480 -9.8083 4.8158 -4.1614 8.2990 2.1636 -1.9693 4.3090 0.0000 0.0000 0.0000 -80.2176 -9.3866 25.7011 68.8215 -58.2355 -41.7676 -0.0000 0.0000 -13.7979 32.0793 -11.5481 -7.1520 -7.1250 0.0000 -0.0000 3.4089 16.4376 -2.3091 0.0000 0.0000 0.0000 75.1111 22.4964 22.7159 -77.9364 59.4429 -49.5722 0.0000 -0.0000 -19.8645 -25.2323 -17.9643 8.2698 7.1250 -0.0000 -0.0000 2.7888 -49.6786 -0.3219
0.00 0.00 0.00 -3.9845 -4.1331 -1.8876 0.0000 0.0000 0.0000 -11.2894 -1.2636 -7.0174 2.4813 9.8039 28.3439 0.9479 -6.8930 -17.3792 0.0242 1.0035 2.7584 0.0000 0.0000 0.0000 20.9028 5.3041 -5.3873 -2.3009 -9.4666 27.2662 -0.4624 -7.8880 -18.0804 -0.0438 -1.3500 3.7125 1.7391 1.0444 16.6058 4.1109 2.0217 1.7532 2.9624 0.9883 -7.5337 -6.4678 -3.7933 -9.9494 6.0464 -4.8849 10.1623 2.5731 -2.2656 4.9899 0.0000 0.0000 0.0000 -82.8416 -8.0361 25.3964 35.6171 -45.2478 -15.2499 -0.0000 0.0000 -17.1785 29.3045 -9.4668 -5.2744 -7.1250 0.0000 -0.0000 1.6644 19.1570 -1.0265 0.0000 0.0000 0.0000 78.5889 15.3866 23.7100 -50.1321 53.0486 -26.2797 0.0000 -0.0000 -21.5349 -27.0378 -18.6871 9.2867 7.1250 -0.0000 -0.0000 1.1431 -50.7697 -0.1625
0.00 0.00 0.00 -4.2103 -4.4545 -1.8173 0.0000 0.0000 0.0000 -11.0406 0.1575 -4.2379 2.0715 9.0135 25.8375 0.6628 -5.8406 -14.5117 0.0091 0.6173 1.6963 0.0000 0.0000 0.0000 21.2311 4.3760 -1.9894 -1.7771 -8.3854 23.8909 -0.3039 -7.7630 -16.0183 -0.0874 -1.9064 5.2471 1.4999 0.9296 16.4131 3.8570 1.9092 -0.5141 2.8719 0.9490 -9.8983 -8.8842 -6.0079 -5.9396 8.0426 -8.1390 10.7422 3.4136 -3.9178 4.8867 -0.0000 -0.0000 0.0000 -88.1034 -1.0947 6.2948 7.9146 -13.4144 -0.9322 -0.0000 -0.0000 16.6909 15.4173 -2.6937 -0.7425 -7.1250 0.0000 -0.0000 -8.5477 27.1586 3.7424 -0.0000 -0.0000 0.0000 83.8268 6.1319 8.2597 -9.5231 15.9902 -1.3406 0.0000 -0.0000 -2.8319 -18.7921 -18.8508 6.2741 7.1250 -0.0000 -0.0000 9.2902 -49.5842 -1.0582
0.00 0.00 0.00 -0.9407 -47.5958 -0.2343 0.0000 0.0000 0.0000 -19.0711 16.9177 -6.5456 1.4551 7.6245 21.5791 1.3384 15.6235 -32.3289 0.0584 1.5596 4.2900 0.0000 0.0000 0.0000 21.8227 -17.0164 -21.9781 -4.3664 -12.6326 38.0082 -0.1587 -20.9156 -30.6361 -1.0311 -6.4589 18.1218 -4.8499 -2.4925 12.0002 1.4630 -3.9131 -0.5054 4.9700 -1.7167 -6.8448 -13.3460 -21.1985 11.6215 15.4779 -29.4628 -5.9421 6.2349 -15.1542 0.6488 -0.0000 -0.0000 0.0000 -89.4278 5.5089 26.4250 22.6931 -33.7515 -6.9670 -0.0000 0.0000 -5.7092 19.2229 -5.7676 -2.0069 -7.1250 0.0000 -0.0000 -5.5522 23.8784 2.8423 -0.0000 -0.0000 0.0000 85.6651 -6.8977 27.4932 -22.5927 33.6404 -6.9113 0.0000 -0.0000 -18.3295 -20.0569 -19.8690 7.0734 7.1250 -0.0000 -0.0000 8.3833 -50.8340 -1.2124
0.00 0.00 0.00 -14.1160 -63.2243 9.3801 0.0000 0.0000 0.0000 -11.9333 21.3584 -12.1489 4.2433 12.4773 37.4422 2.6101 15.9940 -39.4342 0.8948 6.0291 16.8690 0.0000 0.0000 0.0000 27.3675 -12.5242 -13.1362 -2.7055 -10.2023 29.6344 0.2654 -17.3807 -22.0800 -0.2290 -3.0804 8.5026 0.8413 -2.6816 13.3242 3.5401 -3.2304 0.0660 3.9170 -1.5638 -7.2498 -15.0436 -21.1448 10.0679 21.0669 -30.2998 -2.2699 7.1663 -15.6357 3.2657 -0.0000 0.0000 0.0000 -90.7084 6.9667 17.8566 20.4954 -31.2346 -5.7860 -0.0000 0.0000 -9.5799 25.0117 -3.7306 -1.7388 -7.1250 0.0000 -0.0000 -1.2218 25.8641 0.5666 -0.0000 0.0000 0.0000 84.1581 -3.1369 21.5902 -18.5614 28.8700 -4.8172 0.0000 -0.0000 -16.3155 -20.3671 -22.7431 8.1675 7.1250 -0.0000 -0.0000 9.0886 -53.8429 -1.9886
